HIERARCHY
ROOT Hips
{
  OFFSET 51.464 1.814 -274.135
  CHANNELS 6 Xposition Yposition Zposition Zrotation Xrotation Yrotation
  JOINT LeftUpLeg
  {
    OFFSET 5.006 -5.249 0.443
    CHANNELS 6 Xposition Yposition Zposition Zrotation Xrotation Yrotation
    JOINT LeftLeg
    {
      OFFSET -0.000 -53.296 0.000
      CHANNELS 6 Xposition Yposition Zposition Zrotation Xrotation Yrotation
      JOINT LeftFoot
      {
        OFFSET 0.000 -38.500 -0.000
        CHANNELS 6 Xposition Yposition Zposition Zrotation Xrotation Yrotation
        End Site
        {
          OFFSET -0.000 -8.407 4.854
        }
      }
    }
  }
  JOINT RightUpLeg
  {
    OFFSET -4.535 -5.144 2.530
    CHANNELS 6 Xposition Yposition Zposition Zrotation Xrotation Yrotation
    JOINT RightLeg
    {
      OFFSET -0.000 -47.098 0.000
      CHANNELS 6 Xposition Yposition Zposition Zrotation Xrotation Yrotation
      JOINT RightFoot
      {
        OFFSET 0.000 -40.802 -0.000
        CHANNELS 6 Xposition Yposition Zposition Zrotation Xrotation Yrotation
        End Site
        {
          OFFSET -0.000 -7.963 4.598
        }
      }
    }
  }
  JOINT Spine
  {
    OFFSET 0.000 6.363 -6.363
    CHANNELS 6 Xposition Yposition Zposition Zrotation Xrotation Yrotation
    JOINT LeftShoulder
    {
      OFFSET -0.000 37.736 0.000
      CHANNELS 6 Xposition Yposition Zposition Zrotation Xrotation Yrotation
      JOINT LeftArm
      {
        OFFSET 18.448 0.000 -0.000
        CHANNELS 6 Xposition Yposition Zposition Zrotation Xrotation Yrotation
        JOINT LeftForeArm
        {
          OFFSET 25.209 0.000 0.000
          CHANNELS 6 Xposition Yposition Zposition Zrotation Xrotation Yrotation
          JOINT LeftHand
          {
            OFFSET 23.839 -0.000 0.000
            CHANNELS 6 Xposition Yposition Zposition Zrotation Xrotation Yrotation
            JOINT LeftHandThumb1
            {
            OFFSET 4.970 -0.620 3.390
            CHANNELS 6 Xposition Yposition Zposition Zrotation Xrotation Yrotation
              JOINT LeftHandThumb2
              {
              OFFSET 2.150 -0.000 0.000
              CHANNELS 6 Xposition Yposition Zposition Zrotation Xrotation Yrotation
                JOINT LeftHandThumb3
                {
                OFFSET 2.200 -0.000 0.000
                CHANNELS 6 Xposition Yposition Zposition Zrotation Xrotation Yrotation
                  JOINT LeftHandThumb4
                  {
                  OFFSET 1.700 -0.000 0.000
                  CHANNELS 6 Xposition Yposition Zposition Zrotation Xrotation Yrotation
                  }
                }
              }
            }
            JOINT LeftHandIndex1
            {
            OFFSET 8.730 0.680 2.070
            CHANNELS 6 Xposition Yposition Zposition Zrotation Xrotation Yrotation
              JOINT LeftHandIndex2
              {
              OFFSET 2.670 -0.000 0.000
              CHANNELS 6 Xposition Yposition Zposition Zrotation Xrotation Yrotation
                JOINT LeftHandIndex3
                {
                OFFSET 2.130 -0.000 0.000
                CHANNELS 6 Xposition Yposition Zposition Zrotation Xrotation Yrotation
                  JOINT LeftHandIndex4
                  {
                  OFFSET 1.800 -0.000 0.000
                  CHANNELS 6 Xposition Yposition Zposition Zrotation Xrotation Yrotation
                  }
                }
              }
            }
            JOINT LeftHandMiddle1
            {
            OFFSET 9.220 0.670 0.550
            CHANNELS 6 Xposition Yposition Zposition Zrotation Xrotation Yrotation
              JOINT LeftHandMiddle2
              {
              OFFSET 2.660 -0.000 0.000
              CHANNELS 6 Xposition Yposition Zposition Zrotation Xrotation Yrotation
                JOINT LeftHandMiddle3
                {
                OFFSET 2.280 -0.000 0.000
                CHANNELS 6 Xposition Yposition Zposition Zrotation Xrotation Yrotation
                  JOINT LeftHandMiddle4
                  {
                  OFFSET 1.500 -0.000 0.000
                  CHANNELS 6 Xposition Yposition Zposition Zrotation Xrotation Yrotation
                  }
                }
              }
            }
            JOINT LeftHandRing1
            {
            OFFSET 9.250 0.670 -1.130
            CHANNELS 6 Xposition Yposition Zposition Zrotation Xrotation Yrotation
              JOINT LeftHandRing2
              {
              OFFSET 2.470 -0.000 0.000
              CHANNELS 6 Xposition Yposition Zposition Zrotation Xrotation Yrotation
                JOINT LeftHandRing3
                {
                OFFSET 2.210 -0.000 0.000
                CHANNELS 6 Xposition Yposition Zposition Zrotation Xrotation Yrotation
                  JOINT LeftHandRing4
                  {
                  OFFSET 1.800 -0.000 0.000
                  CHANNELS 6 Xposition Yposition Zposition Zrotation Xrotation Yrotation
                  }
                }
              }
            }
            JOINT LeftHandPinky1
            {
            OFFSET 9.350 0.660 -2.720
            CHANNELS 6 Xposition Yposition Zposition Zrotation Xrotation Yrotation
              JOINT LeftHandPinky2
              {
              OFFSET 1.630 -0.000 0.000
              CHANNELS 6 Xposition Yposition Zposition Zrotation Xrotation Yrotation
                JOINT LeftHandPinky3
                {
                OFFSET 1.710 -0.000 0.000
                CHANNELS 6 Xposition Yposition Zposition Zrotation Xrotation Yrotation
                  JOINT LeftHandPinky4
                  {
                  OFFSET 1.800 -0.000 0.000
                  CHANNELS 6 Xposition Yposition Zposition Zrotation Xrotation Yrotation
                  }
                }
              }
            }
          }
        }
      }
    }
    JOINT RightShoulder
    {
      OFFSET -0.000 37.736 0.000
      CHANNELS 6 Xposition Yposition Zposition Zrotation Xrotation Yrotation
      JOINT RightArm
      {
        OFFSET -22.626 0.000 -0.000
        CHANNELS 6 Xposition Yposition Zposition Zrotation Xrotation Yrotation
        JOINT RightForeArm
        {
          OFFSET -22.498 0.000 0.000
          CHANNELS 6 Xposition Yposition Zposition Zrotation Xrotation Yrotation
          JOINT RightHand
          {
            OFFSET -20.374 0.000 -0.000
            CHANNELS 6 Xposition Yposition Zposition Zrotation Xrotation Yrotation
            JOINT RightHandThumb1
            {
            OFFSET -4.970 -0.620 3.390
            CHANNELS 6 Xposition Yposition Zposition Zrotation Xrotation Yrotation
              JOINT RightHandThumb2
              {
              OFFSET -2.150 0.000 0.000
              CHANNELS 6 Xposition Yposition Zposition Zrotation Xrotation Yrotation
                JOINT RightHandThumb3
                {
                OFFSET -2.200 0.000 0.000
                CHANNELS 6 Xposition Yposition Zposition Zrotation Xrotation Yrotation
                  JOINT RightHandThumb4
                  {
                  OFFSET -1.700 0.000 0.000
                  CHANNELS 6 Xposition Yposition Zposition Zrotation Xrotation Yrotation
                  }
                }
              }
            }
            JOINT RightHandIndex1
            {
            OFFSET -8.730 0.680 2.070
            CHANNELS 6 Xposition Yposition Zposition Zrotation Xrotation Yrotation
              JOINT RightHandIndex2
              {
              OFFSET -2.670 0.000 0.000
              CHANNELS 6 Xposition Yposition Zposition Zrotation Xrotation Yrotation
                JOINT RightHandIndex3
                {
                OFFSET -2.130 0.000 0.000
                CHANNELS 6 Xposition Yposition Zposition Zrotation Xrotation Yrotation
                  JOINT RightHandIndex4
                  {
                  OFFSET -1.800 0.000 0.000
                  CHANNELS 6 Xposition Yposition Zposition Zrotation Xrotation Yrotation
                  }
                }
              }
            }
            JOINT RightHandMiddle1
            {
            OFFSET -9.220 0.670 0.550
            CHANNELS 6 Xposition Yposition Zposition Zrotation Xrotation Yrotation
              JOINT RightHandMiddle2
              {
              OFFSET -2.660 0.000 0.000
              CHANNELS 6 Xposition Yposition Zposition Zrotation Xrotation Yrotation
                JOINT RightHandMiddle3
                {
                OFFSET -2.280 0.000 0.000
                CHANNELS 6 Xposition Yposition Zposition Zrotation Xrotation Yrotation
                  JOINT RightHandMiddle4
                  {
                  OFFSET -1.500 0.000 0.000
                  CHANNELS 6 Xposition Yposition Zposition Zrotation Xrotation Yrotation
                  }
                }
              }
            }
            JOINT RightHandRing1
            {
            OFFSET -9.250 0.670 -1.130
            CHANNELS 6 Xposition Yposition Zposition Zrotation Xrotation Yrotation
              JOINT RightHandRing2
              {
              OFFSET -2.470 0.000 0.000
              CHANNELS 6 Xposition Yposition Zposition Zrotation Xrotation Yrotation
                JOINT RightHandRing3
                {
                OFFSET -2.210 0.000 0.000
                CHANNELS 6 Xposition Yposition Zposition Zrotation Xrotation Yrotation
                  JOINT RightHandRing4
                  {
                  OFFSET -1.800 0.000 0.000
                  CHANNELS 6 Xposition Yposition Zposition Zrotation Xrotation Yrotation
                  }
                }
              }
            }
            JOINT RightHandPinky1
            {
            OFFSET -9.350 0.660 -2.720
            CHANNELS 6 Xposition Yposition Zposition Zrotation Xrotation Yrotation
              JOINT RightHandPinky2
              {
              OFFSET -1.630 0.000 0.000
              CHANNELS 6 Xposition Yposition Zposition Zrotation Xrotation Yrotation
                JOINT RightHandPinky3
                {
                OFFSET -1.710 0.000 0.000
                CHANNELS 6 Xposition Yposition Zposition Zrotation Xrotation Yrotation
                  JOINT RightHandPinky4
                  {
                  OFFSET -1.800 0.000 0.000
                  CHANNELS 6 Xposition Yposition Zposition Zrotation Xrotation Yrotation
                  }
                }
              }
            }
          }
        }
      }
    }
    JOINT Neck
    {
      OFFSET -0.000 37.736 0.000
      CHANNELS 6 Xposition Yposition Zposition Zrotation Xrotation Yrotation
      JOINT Head
      {
        OFFSET -0.000 20.597 -0.000
        CHANNELS 6 Xposition Yposition Zposition Zrotation Xrotation Yrotation
        End Site
        {
          OFFSET -0.000 0.082 -0.000
        }
      }
    }
  }
}
MOTION
Frames:	5
Frame Time:	0.0333333
66.7411 -3.28417 -278.204 10.3129 -4.35629 -46.6653 5.28463 -5.76247 0.247455 -5.75698 12.9433 14.0529 3.57628e-05 -57.9093 -2.38419e-05 2.40238 -19.5318 7.24722e-06 5.96046e-06 -34.4909 2.38419e-05 -45.1914 -45.0363 -54.9201 -5.97706 -5.18137 2.8173 2.42345 -19.5158 14.1091 -3.57628e-05 -53.4556 7.15256e-05 -15.8036 0.85993 -6.83096e-06 -1.19209e-05 -35.0228 2.38419e-05 -5.51759 -12.8201 -4.34012 7.15256e-05 6.86361 -6.86362 -5.83663 -8.24687 7.56624 -2.38419e-05 37.7364 -2.38419e-05 -36.5334 1.79293e-05 -33.1814 15.8587 8.9407e-06 0 -44.752 56.3474 13.8817 23.4728 7.15256e-05 -1.19209e-05 1.28939e-05 -3.56009e-06 -114.299 23.6557 -4.76837e-05 -1.19209e-05 20.0095 0.0653584 -45.3149 0.0062 0.0497 0.0339 -1.61149e-43 0 0 0 0.0215 0 0 -1.61149e-43 0 0 0.022 0 0 -1.61149e-43 0 0 0.017 0 0 0 0 -0.0068 0.0873 0.0207 -1.61149e-43 0 0 0 0.0267 0 -3.20897e-43 0 0 0 0.0213 0 -4.00771e-43 0 0 0 0.018 0 0 0 0 -0.0067 0.0922 0.0055 -1.61149e-43 0 0 0 0.0266 0 -3.20897e-43 0 0 0 0.0228 0 -4.00771e-43 0 0 0 0.015 0 0 0 0 -0.0067 0.0925 -0.0113 -1.61149e-43 0 0 0 0.0247 0 -3.20897e-43 0 0 0 0.0221 0 -4.00771e-43 0 0 0 0.018 0 0 0 0 -0.0066 0.0935 -0.0272 -1.61149e-43 0 0 0 0.0163 0 -3.20897e-43 0 0 0 0.0171 0 -4.00771e-43 0 0 0 0.018 0 0 0 0 -2.38419e-05 37.7364 -2.38419e-05 45.6026 -6.83019e-06 21.6639 -23.511 0 0 113.019 2.58833 -97.614 -23.5516 -2.38419e-05 5.96046e-06 7.66756e-06 -1.70755e-06 86.828 -25.9103 0 0 -10.0348 0.15969 -11.8561 -0.0062 0.0497 0.0339 45 0 0 0 0.0215 0 0 -45 0 0 0.022 0 0 -45 0 0 0.017 0 0 0 0 0.0068 0.0873 0.0207 45 0 0 0 0.0267 0 80 0 0 0 0.0213 0 90 0 0 0 0.018 0 0 0 0 0.0067 0.0922 0.0055 45 0 0 0 0.0266 0 80 0 0 0 0.0228 0 90 0 0 0 0.015 0 0 0 0 0.0067 0.0925 -0.0113 45 0 0 0 0.0247 0 80 0 0 0 0.0221 0 90 0 0 0 0.018 0 0 0 0 0.0066 0.0935 -0.0272 45 0 0 0 0.0163 0 80 0 0 0 0.0171 0 90 0 0 0 0.018 0 0 0 0 -2.38419e-05 37.7364 -2.38419e-05 30.646 10.8752 -6.37824 -2.38419e-05 23.538 -2.38419e-05 7.68396e-06 -1.19528e-05 -8.53774e-06 
66.7411 -3.28417 -278.204 10.3129 -4.35629 -46.6653 5.28463 -5.76247 0.247455 -5.75698 12.9433 14.0529 3.57628e-05 -57.9093 -2.38419e-05 2.40238 -19.5318 7.24722e-06 5.96046e-06 -34.4909 2.38419e-05 -45.1914 -45.0363 -54.9201 -5.97706 -5.18137 2.8173 2.42345 -19.5158 14.1091 -3.57628e-05 -53.4556 7.15256e-05 -15.8036 0.85993 -6.83096e-06 -1.19209e-05 -35.0228 2.38419e-05 -5.51759 -12.8201 -4.34012 7.15256e-05 6.86361 -6.86362 -5.83663 -8.24687 7.56624 -2.38419e-05 37.7364 -2.38419e-05 -36.5334 1.79293e-05 -33.1814 15.8587 8.9407e-06 0 -44.752 56.3474 13.8817 23.4728 7.15256e-05 -1.19209e-05 1.28939e-05 -3.56009e-06 -114.299 23.6557 -4.76837e-05 -1.19209e-05 20.0095 0.0653584 -45.3149 0.0062 0.0497 0.0339 -1.61149e-43 0 0 0 0.0215 0 0 -1.61149e-43 0 0 0.022 0 0 -1.61149e-43 0 0 0.017 0 0 0 0 -0.0068 0.0873 0.0207 -1.61149e-43 0 0 0 0.0267 0 -3.20897e-43 0 0 0 0.0213 0 -4.00771e-43 0 0 0 0.018 0 0 0 0 -0.0067 0.0922 0.0055 -1.61149e-43 0 0 0 0.0266 0 -3.20897e-43 0 0 0 0.0228 0 -4.00771e-43 0 0 0 0.015 0 0 0 0 -0.0067 0.0925 -0.0113 -1.61149e-43 0 0 0 0.0247 0 -3.20897e-43 0 0 0 0.0221 0 -4.00771e-43 0 0 0 0.018 0 0 0 0 -0.0066 0.0935 -0.0272 -1.61149e-43 0 0 0 0.0163 0 -3.20897e-43 0 0 0 0.0171 0 -4.00771e-43 0 0 0 0.018 0 0 0 0 -2.38419e-05 37.7364 -2.38419e-05 45.6026 -6.83019e-06 21.6639 -23.511 0 0 113.019 2.58833 -97.614 -23.5516 -2.38419e-05 5.96046e-06 7.66756e-06 -1.70755e-06 86.828 -25.9103 0 0 -10.0348 0.15969 -11.8561 -0.0062 0.0497 0.0339 45 0 0 0 0.0215 0 0 -45 0 0 0.022 0 0 -45 0 0 0.017 0 0 0 0 0.0068 0.0873 0.0207 45 0 0 0 0.0267 0 80 0 0 0 0.0213 0 90 0 0 0 0.018 0 0 0 0 0.0067 0.0922 0.0055 45 0 0 0 0.0266 0 80 0 0 0 0.0228 0 90 0 0 0 0.015 0 0 0 0 0.0067 0.0925 -0.0113 45 0 0 0 0.0247 0 80 0 0 0 0.0221 0 90 0 0 0 0.018 0 0 0 0 0.0066 0.0935 -0.0272 45 0 0 0 0.0163 0 80 0 0 0 0.0171 0 90 0 0 0 0.018 0 0 0 0 -2.38419e-05 37.7364 -2.38419e-05 30.646 10.8752 -6.37824 -2.38419e-05 23.538 -2.38419e-05 7.68396e-06 -1.19528e-05 -8.53774e-06 
66.6999 -3.18422 -278.188 9.88808 -4.32713 -46.8164 5.27629 -5.7096 0.326586 -5.493 13.2963 13.4905 -5.96046e-06 -57.9412 4.76837e-05 2.85991 -19.5391 1.08713e-05 3.57628e-05 -34.4897 7.15256e-05 -44.847 -45.3829 -54.441 -5.95498 -5.22871 2.74673 2.73753 -19.1006 13.2494 -5.96046e-05 -53.4533 0 -15.7541 0.310352 -3.41514e-06 2.38419e-05 -35.1237 -2.38419e-05 -4.63191 -13.7017 -3.75722 -5.96046e-05 6.85678 -6.85682 -5.75719 -8.15563 7.74092 1.19209e-05 37.7364 2.38419e-05 -37.1009 1.96368e-05 -33.235 15.8612 -2.98023e-06 -2.38419e-05 -45.1229 56.5231 15.2301 23.4702 -7.15256e-05 1.78814e-05 3.01778e-05 -3.60177e-06 -114.603 23.7896 4.76837e-05 -3.57628e-05 19.5199 0.0683799 -45.5139 0.0062 0.0497 0.0339 -1.61149e-43 0 0 0 0.0215 0 0 -1.61149e-43 0 0 0.022 0 0 -1.61149e-43 0 0 0.017 0 0 0 0 -0.0068 0.0873 0.0207 -1.61149e-43 0 0 0 0.0267 0 -3.20897e-43 0 0 0 0.0213 0 -4.00771e-43 0 0 0 0.018 0 0 0 0 -0.0067 0.0922 0.0055 -1.61149e-43 0 0 0 0.0266 0 -3.20897e-43 0 0 0 0.0228 0 -4.00771e-43 0 0 0 0.015 0 0 0 0 -0.0067 0.0925 -0.0113 -1.61149e-43 0 0 0 0.0247 0 -3.20897e-43 0 0 0 0.0221 0 -4.00771e-43 0 0 0 0.018 0 0 0 0 -0.0066 0.0935 -0.0272 -1.61149e-43 0 0 0 0.0163 0 -3.20897e-43 0 0 0 0.0171 0 -4.00771e-43 0 0 0 0.018 0 0 0 0 1.19209e-05 37.7364 2.38419e-05 45.6408 -1.8783e-05 21.5149 -23.7035 0 -4.76837e-05 113.247 2.72067 -97.8486 -23.4843 1.19209e-05 5.96046e-06 -8.81418e-05 2.09175e-05 86.9652 -25.9257 0 -4.76837e-05 -10.3697 0.137599 -11.868 -0.0062 0.0497 0.0339 45 0 0 0 0.0215 0 0 -45 0 0 0.022 0 0 -45 0 0 0.017 0 0 0 0 0.0068 0.0873 0.0207 45 0 0 0 0.0267 0 80 0 0 0 0.0213 0 90 0 0 0 0.018 0 0 0 0 0.0067 0.0922 0.0055 45 0 0 0 0.0266 0 80 0 0 0 0.0228 0 90 0 0 0 0.015 0 0 0 0 0.0067 0.0925 -0.0113 45 0 0 0 0.0247 0 80 0 0 0 0.0221 0 90 0 0 0 0.018 0 0 0 0 0.0066 0.0935 -0.0272 45 0 0 0 0.0163 0 80 0 0 0 0.0171 0 90 0 0 0 0.018 0 0 0 0 1.19209e-05 37.7364 2.38419e-05 30.704 11.0488 -6.49284 -1.19209e-05 23.4814 7.15256e-05 6.83019e-06 -6.83019e-06 3.4151e-06 
66.6662 -3.10199 -278.175 9.52633 -4.28487 -46.9179 5.26092 -5.65842 0.377774 -5.23119 13.5569 13.0968 2.38419e-05 -57.969 0 3.16614 -19.5015 -7.24586e-06 4.76837e-05 -34.4876 -7.15256e-05 -44.4901 -45.7408 -53.9457 -5.93027 -5.25841 2.69072 3.00206 -18.7579 12.642 4.76837e-05 -53.461 2.38419e-05 -15.71 -0.0967339 -3.4151e-06 -3.57628e-05 -35.2079 0 -3.61292 -14.6896 -3.04594 -2.38419e-05 6.8522 -6.85215 -5.68848 -8.09027 7.88567 -3.57628e-05 37.7364 2.38419e-05 -37.5648 1.45142e-05 -33.2546 15.8637 1.93715e-05 -2.38419e-05 -45.4586 56.6521 16.3781 23.467 2.38419e-05 -1.49012e-05 4.25572e-05 -9.37772e-06 -114.854 23.9173 -2.38419e-05 -2.38419e-05 19.0332 0.0706243 -45.7044 0.0062 0.0497 0.0339 -1.61149e-43 0 0 0 0.0215 0 0 -1.61149e-43 0 0 0.022 0 0 -1.61149e-43 0 0 0.017 0 0 0 0 -0.0068 0.0873 0.0207 -1.61149e-43 0 0 0 0.0267 0 -3.20897e-43 0 0 0 0.0213 0 -4.00771e-43 0 0 0 0.018 0 0 0 0 -0.0067 0.0922 0.0055 -1.61149e-43 0 0 0 0.0266 0 -3.20897e-43 0 0 0 0.0228 0 -4.00771e-43 0 0 0 0.015 0 0 0 0 -0.0067 0.0925 -0.0113 -1.61149e-43 0 0 0 0.0247 0 -3.20897e-43 0 0 0 0.0221 0 -4.00771e-43 0 0 0 0.018 0 0 0 0 -0.0066 0.0935 -0.0272 -1.61149e-43 0 0 0 0.0163 0 -3.20897e-43 0 0 0 0.0171 0 -4.00771e-43 0 0 0 0.018 0 0 0 0 -3.57628e-05 37.7364 2.38419e-05 45.67 -8.53774e-06 21.3756 -23.8669 -1.19209e-05 0 113.437 2.83331 -98.0354 -23.4213 -2.38419e-05 -1.78814e-05 -0.000292296 1.45142e-05 87.0737 -25.9396 -1.19209e-05 2.38419e-05 -10.5938 0.116142 -11.8534 -0.0062 0.0497 0.0339 45 0 0 0 0.0215 0 0 -45 0 0 0.022 0 0 -45 0 0 0.017 0 0 0 0 0.0068 0.0873 0.0207 45 0 0 0 0.0267 0 80 0 0 0 0.0213 0 90 0 0 0 0.018 0 0 0 0 0.0067 0.0922 0.0055 45 0 0 0 0.0266 0 80 0 0 0 0.0228 0 90 0 0 0 0.015 0 0 0 0 0.0067 0.0925 -0.0113 45 0 0 0 0.0247 0 80 0 0 0 0.0221 0 90 0 0 0 0.018 0 0 0 0 0.0066 0.0935 -0.0272 45 0 0 0 0.0163 0 80 0 0 0 0.0171 0 90 0 0 0 0.018 0 0 0 0 -3.57628e-05 37.7364 2.38419e-05 30.7895 11.1754 -6.58776 -2.38419e-05 23.4427 -4.76837e-05 1.19528e-05 -9.39151e-06 0 
66.6301 -3.09882 -278.162 9.29504 -4.19854 -47.0086 5.23821 -5.60742 0.390983 -4.99034 13.6866 13.01 5.96046e-05 -57.9865 -2.38419e-05 3.25155 -19.5044 -9.05749e-06 1.19209e-05 -34.4865 4.76837e-05 -44.2562 -45.9723 -53.6236 -5.88917 -5.24994 2.6654 3.22305 -18.5777 12.4642 -3.57628e-05 -53.4337 4.76837e-05 -15.6705 -0.344659 5.12274e-06 2.38419e-05 -35.2381 0 -2.9068 -15.3771 -2.53143 2.38419e-05 6.86416 -6.86419 -5.58701 -8.11543 7.99163 2.38419e-05 37.7364 -2.38419e-05 -37.7777 3.41509e-06 -33.3022 15.8626 -2.23517e-05 2.38419e-05 -45.8027 56.6471 17.2004 23.4648 2.38419e-05 0 5.74704e-05 -3.6628e-06 -115.048 24.0079 4.76837e-05 0 18.694 0.0721667 -45.8343 0.0062 0.0497 0.0339 -1.61149e-43 0 0 0 0.0215 0 0 -1.61149e-43 0 0 0.022 0 0 -1.61149e-43 0 0 0.017 0 0 0 0 -0.0068 0.0873 0.0207 -1.61149e-43 0 0 0 0.0267 0 -3.20897e-43 0 0 0 0.0213 0 -4.00771e-43 0 0 0 0.018 0 0 0 0 -0.0067 0.0922 0.0055 -1.61149e-43 0 0 0 0.0266 0 -3.20897e-43 0 0 0 0.0228 0 -4.00771e-43 0 0 0 0.015 0 0 0 0 -0.0067 0.0925 -0.0113 -1.61149e-43 0 0 0 0.0247 0 -3.20897e-43 0 0 0 0.0221 0 -4.00771e-43 0 0 0 0.018 0 0 0 0 -0.0066 0.0935 -0.0272 -1.61149e-43 0 0 0 0.0163 0 -3.20897e-43 0 0 0 0.0171 0 -4.00771e-43 0 0 0 0.018 0 0 0 0 2.38419e-05 37.7364 -2.38419e-05 45.6528 1.70755e-06 21.3245 -23.9501 1.19209e-05 2.38419e-05 113.595 2.86597 -98.1753 -23.3707 0 1.19209e-05 2.57822e-05 0 87.1528 -25.9568 -1.19209e-05 4.76837e-05 -10.7083 0.102092 -11.8313 -0.0062 0.0497 0.0339 45 0 0 0 0.0215 0 0 -45 0 0 0.022 0 0 -45 0 0 0.017 0 0 0 0 0.0068 0.0873 0.0207 45 0 0 0 0.0267 0 80 0 0 0 0.0213 0 90 0 0 0 0.018 0 0 0 0 0.0067 0.0922 0.0055 45 0 0 0 0.0266 0 80 0 0 0 0.0228 0 90 0 0 0 0.015 0 0 0 0 0.0067 0.0925 -0.0113 45 0 0 0 0.0247 0 80 0 0 0 0.0221 0 90 0 0 0 0.018 0 0 0 0 0.0066 0.0935 -0.0272 45 0 0 0 0.0163 0 80 0 0 0 0.0171 0 90 0 0 0 0.018 0 0 0 0 2.38419e-05 37.7364 -2.38419e-05 30.7679 11.3167 -6.66357 3.57628e-05 23.446 9.53674e-05 1.45142e-05 -1.02453e-05 -1.70755e-06 
